HIERARCHY
ROOT Hips
{
  OFFSET -21.6994 31.6921 0
  CHANNELS 6 Xposition Yposition Zposition Zrotation Xrotation Yrotation
  JOINT Bip01_Pelvis
  {
    OFFSET 0 0 0
    CHANNELS 6 Xposition Yposition Zposition Zrotation Xrotation Yrotation
    JOINT BN_Tail_01
    {
      OFFSET -7.25226 -1.74978 0
      CHANNELS 6 Xposition Yposition Zposition Zrotation Xrotation Yrotation
      JOINT BN_Tail_02
      {
        OFFSET 15.788 0 0
        CHANNELS 6 Xposition Yposition Zposition Zrotation Xrotation Yrotation
        JOINT BN_Tail_03
        {
          OFFSET 16.0015 0 0
          CHANNELS 6 Xposition Yposition Zposition Zrotation Xrotation Yrotation
          JOINT BN_Tail_04
          {
            OFFSET 16.1689 0 0
            CHANNELS 6 Xposition Yposition Zposition Zrotation Xrotation Yrotation
            End Site
            {
              OFFSET 0 0 0
            }
          }
        }
      }
    }
    JOINT Bip01_Spine
    {
      OFFSET 6.38383 2.70859 0.585432
      CHANNELS 6 Xposition Yposition Zposition Zrotation Xrotation Yrotation
      JOINT BN_Mane_02
      {
        OFFSET 6.12662 8.45826 0
        CHANNELS 6 Xposition Yposition Zposition Zrotation Xrotation Yrotation
        End Site
        {
          OFFSET 0 0 0
        }
      }
      JOINT Bip01_R_Thigh
      {
        OFFSET -7.04074 -2.18223 -5.47025
        CHANNELS 6 Xposition Yposition Zposition Zrotation Xrotation Yrotation
        JOINT Bip01_R_Calf
        {
          OFFSET 13.6591 0 0
          CHANNELS 6 Xposition Yposition Zposition Zrotation Xrotation Yrotation
          JOINT Bip01_R_HorseLink
          {
            OFFSET 9.07516 0 0
            CHANNELS 6 Xposition Yposition Zposition Zrotation Xrotation Yrotation
            JOINT Bip01_R_Foot
            {
              OFFSET 8.13856 0 0
              CHANNELS 6 Xposition Yposition Zposition Zrotation Xrotation Yrotation
              JOINT Bip01_R_Toe0
              {
                OFFSET 3.79737 6.30086 0
                CHANNELS 6 Xposition Yposition Zposition Zrotation Xrotation Yrotation
                JOINT Bip01_R_Toe0Nub
                {
                  OFFSET 0.838764 0 0
                  CHANNELS 6 Xposition Yposition Zposition Zrotation Xrotation Yrotation
                  End Site
                  {
                    OFFSET 0 0 0
                  }
                }
              }
            }
          }
        }
      }
      JOINT Bip01_L_Thigh
      {
        OFFSET -6.18667 -2.14873 5.3508
        CHANNELS 6 Xposition Yposition Zposition Zrotation Xrotation Yrotation
        JOINT Bip01_L_Calf
        {
          OFFSET 13.6591 0 0
          CHANNELS 6 Xposition Yposition Zposition Zrotation Xrotation Yrotation
          JOINT Bip01_L_HorseLink
          {
            OFFSET 9.07515 0 0
            CHANNELS 6 Xposition Yposition Zposition Zrotation Xrotation Yrotation
            JOINT Bip01_L_Foot
            {
              OFFSET 8.13856 0 0
              CHANNELS 6 Xposition Yposition Zposition Zrotation Xrotation Yrotation
              JOINT Bip01_L_Toe0
              {
                OFFSET 3.79737 6.30086 0
                CHANNELS 6 Xposition Yposition Zposition Zrotation Xrotation Yrotation
                JOINT Bip01_L_Toe0Nub
                {
                  OFFSET 0.838764 0 0
                  CHANNELS 6 Xposition Yposition Zposition Zrotation Xrotation Yrotation
                  End Site
                  {
                    OFFSET 0 0 0
                  }
                }
              }
            }
          }
        }
      }
      JOINT Bip01_Spine1
      {
        OFFSET 12.1687 -0.0105438 0
        CHANNELS 6 Xposition Yposition Zposition Zrotation Xrotation Yrotation
        JOINT BN_Mane_R_01
        {
          OFFSET -0.157498 5.09008 -6.54008
          CHANNELS 6 Xposition Yposition Zposition Zrotation Xrotation Yrotation
          End Site
          {
            OFFSET 0 0 0
          }
        }
        JOINT BN_Mane_R_02
        {
          OFFSET -0.1575 5.09007 6.54
          CHANNELS 6 Xposition Yposition Zposition Zrotation Xrotation Yrotation
          End Site
          {
            OFFSET 0 0 0
          }
        }
        JOINT BN_Mane_01
        {
          OFFSET 8.29709 8.50414 0
          CHANNELS 6 Xposition Yposition Zposition Zrotation Xrotation Yrotation
          End Site
          {
            OFFSET 0 0 0
          }
        }
        JOINT Bip01_Spine2
        {
          OFFSET 13.2802 -0.0100708 1.51992e-005
          CHANNELS 6 Xposition Yposition Zposition Zrotation Xrotation Yrotation
          JOINT Bip01_Neck
          {
            OFFSET 12.4891 -6.66662 0
            CHANNELS 6 Xposition Yposition Zposition Zrotation Xrotation Yrotation
            JOINT Bip01_R_Clavicle
            {
              OFFSET -7.4542 -2.82621 -1.17874
              CHANNELS 6 Xposition Yposition Zposition Zrotation Xrotation Yrotation
              JOINT Bip01_R_UpperArm
              {
                OFFSET 13.2557 0 0
                CHANNELS 6 Xposition Yposition Zposition Zrotation Xrotation Yrotation
                JOINT Bip01_R_Forearm
                {
                  OFFSET 12.8897 0 0
                  CHANNELS 6 Xposition Yposition Zposition Zrotation Xrotation Yrotation
                  JOINT Bip01_R_Hand
                  {
                    OFFSET 11.2622 0 0
                    CHANNELS 6 Xposition Yposition Zposition Zrotation Xrotation Yrotation
                    JOINT Bip01_R_Finger0
                    {
                      OFFSET 3.98015 -0.208661 -0.0949803
                      CHANNELS 6 Xposition Yposition Zposition Zrotation Xrotation Yrotation
                      JOINT Bip01_R_Finger0Nub
                      {
                        OFFSET 6.57561 0 0
                        CHANNELS 6 Xposition Yposition Zposition Zrotation Xrotation Yrotation
                        End Site
                        {
                          OFFSET 0 0 0
                        }
                      }
                    }
                  }
                }
              }
            }
            JOINT Bip01_L_Clavicle
            {
              OFFSET -7.4541 -2.82679 1.17708
              CHANNELS 6 Xposition Yposition Zposition Zrotation Xrotation Yrotation
              JOINT Bip01_L_UpperArm
              {
                OFFSET 13.2558 0 0
                CHANNELS 6 Xposition Yposition Zposition Zrotation Xrotation Yrotation
                JOINT Bip01_L_Forearm
                {
                  OFFSET 12.8897 0 0
                  CHANNELS 6 Xposition Yposition Zposition Zrotation Xrotation Yrotation
                  JOINT Bip01_L_Hand
                  {
                    OFFSET 11.2622 0 0
                    CHANNELS 6 Xposition Yposition Zposition Zrotation Xrotation Yrotation
                    JOINT Bip01_L_Finger0
                    {
                      OFFSET 3.98014 -0.20866 0.0949764
                      CHANNELS 6 Xposition Yposition Zposition Zrotation Xrotation Yrotation
                      JOINT Bip01_L_Finger0Nub
                      {
                        OFFSET 6.57562 0 0
                        CHANNELS 6 Xposition Yposition Zposition Zrotation Xrotation Yrotation
                        End Site
                        {
                          OFFSET 0 0 0
                        }
                      }
                    }
                  }
                }
              }
            }
            JOINT Bip01_Neck1
            {
              OFFSET 4.19352 -0.00332451 0
              CHANNELS 6 Xposition Yposition Zposition Zrotation Xrotation Yrotation
              JOINT Bip01_Head
              {
                OFFSET 4.17604 0.298252 0
                CHANNELS 6 Xposition Yposition Zposition Zrotation Xrotation Yrotation
                JOINT BN_Eye_R_01
                {
                  OFFSET 6.53258 -3.90694 -2.55361
                  CHANNELS 6 Xposition Yposition Zposition Zrotation Xrotation Yrotation
                  End Site
                  {
                    OFFSET 0 0 0
                  }
                }
                JOINT BN_Eye_L_01
                {
                  OFFSET 6.5326 -3.90694 2.55371
                  CHANNELS 6 Xposition Yposition Zposition Zrotation Xrotation Yrotation
                  End Site
                  {
                    OFFSET 0 0 0
                  }
                }
                JOINT BN_Ear_R_01
                {
                  OFFSET 1.75934 -4.1584 -4.45634
                  CHANNELS 6 Xposition Yposition Zposition Zrotation Xrotation Yrotation
                  End Site
                  {
                    OFFSET 0 0 0
                  }
                }
                JOINT BN_Ear_L_01
                {
                  OFFSET 1.75933 -4.15841 4.45616
                  CHANNELS 6 Xposition Yposition Zposition Zrotation Xrotation Yrotation
                  End Site
                  {
                    OFFSET 0 0 0
                  }
                }
                JOINT BN_Beard_L_01
                {
                  OFFSET 11.2964 -1.06183 2.32054
                  CHANNELS 6 Xposition Yposition Zposition Zrotation Xrotation Yrotation
                  End Site
                  {
                    OFFSET 0 0 0
                  }
                }
                JOINT BN_Beard_R_01
                {
                  OFFSET 11.2964 -1.06182 -2.32036
                  CHANNELS 6 Xposition Yposition Zposition Zrotation Xrotation Yrotation
                  End Site
                  {
                    OFFSET 0 0 0
                  }
                }
                JOINT BN_Mouth_0
                {
                  OFFSET 1.3149 1.30001 0
                  CHANNELS 6 Xposition Yposition Zposition Zrotation Xrotation Yrotation
                  End Site
                  {
                    OFFSET 0 0 0
                  }
                }
                JOINT Bip01_HeadNub
                {
                  OFFSET 12.6869 0 0
                  CHANNELS 6 Xposition Yposition Zposition Zrotation Xrotation Yrotation
                  End Site
                  {
                    OFFSET 0 0 0
                  }
                }
              }
            }
          }
        }
      }
    }
  }
}
MOTION
Frames:	4
Frame Time:	0.0333333
-30.2956 7.67337 0 176.373 -22.8909 -88.91 0 0 1.90735e-006 -105.354 -4.041 -86.8283 -7.25225 -1.74978 -4.76837e-007 -27.1699 -4.70253 -166.592 15.788 0 -1.90735e-006 12.4819 18.1066 -11.1531 16.0015 1.90735e-006 9.53674e-007 35.1399 -21.587 6.2865 16.1689 -7.6294e-006 -5.96046e-008 36.3023 -17.012 -1.65715 6.52909 2.15392 1.08511 1.7902 -16.8139 4.38089 6.12663 8.45827 4.76269e-007 -88.9944 -0.0325012 -179.967 -6.05593 0.019474 -7.28063 -97.6282 -13.4014 -154.975 13.6591 3.8147e-006 7.10543e-015 -67.1035 4.92333e-006 1.25875e-005 9.07514 7.15256e-007 -3.55271e-015 91.8108 9.34191e-006 1.17405e-006 8.13855 7.10543e-015 1.06581e-014 -73.5822 -7.89698 0.221896 3.79736 6.30085 -1.90536e-006 89.3797 1.36984e-005 -7.22245e-006 0.838763 0 -3.55271e-015 -8.9932e-007 2.16533e-006 -2.94794e-007 -6.84863 -3.12193 3.07795 -86.0579 -2.59997 -170.895 13.6591 -7.10543e-015 -4.76837e-007 -103.266 8.39998e-006 -1.50761e-005 9.07516 -3.55271e-015 -1.77636e-015 108.705 5.29128e-005 -4.93207e-006 8.13856 -7.6294e-006 -4.76837e-007 -51.4635 -7.43386 -10.6603 3.79738 6.30086 -4.7543e-007 93.8859 -6.61079e-006 5.6647e-006 0.838761 -7.10543e-015 4.76837e-007 179.96 0.0001815 -1.12448e-007 12.1684 -0.0102468 -0.00240564 -5.46744 13.3406 3.73701 -0.157493 5.09008 -6.54009 -92.7406 -0.022012 -167.965 -0.157496 5.09007 6.54 87.255 -0.000393422 12.0139 8.2971 8.50413 9.48675e-007 -91.651 -0.0333862 -179.968 13.2807 -0.0100152 -0.00155926 -6.19417 8.67282 -11.5907 12.4895 -6.66661 1.57865e-008 2.5586 -3.82057 7.41581 -7.51061 -1.81252 -2.29058 -161.004 -70.9988 134.645 13.2557 8.88178e-015 -5.32907e-015 71.7325 46.4754 -105.531 12.8897 1.90735e-006 9.53675e-007 -80.2777 8.62332e-006 -6.46722e-006 11.2623 -9.53674e-007 -9.53675e-007 136.805 50.4265 -168.79 3.98015 -0.20866 -0.0949784 11.0954 28.454 19.4595 6.57561 -1.90735e-006 -9.53675e-007 179.96 1.73588e-005 -2.5889e-005 -7.81404 -1.96963 0.0403371 162.85 63.1376 -55.3855 13.2557 -4.76837e-007 -1.42109e-014 -89.906 -65.8986 -58.1438 12.8897 -2.83122e-007 -6.66134e-016 -41.455 1.03235e-006 1.73655e-005 11.2623 1.90735e-006 -6.88338e-015 -41.2187 -11.6648 -4.8163 3.98015 -0.20866 0.0949783 17.7442 -47.2146 17.3856 6.57562 -9.53674e-007 -1.90735e-006 1.928e-007 1.00724e-005 1.90046e-007 4.1934 -0.00320315 -0.000843048 -7.41534 14.7203 -11.978 4.17604 0.298255 -4.86843e-010 35.7694 -0.477174 -10.4149 6.53259 -3.90693 -2.55361 164.794 6.70422 156.612 6.5326 -3.90694 2.55371 -19.5491 8.39145 -22.8455 1.75935 -4.1584 -4.45634 24.7931 -39.7306 142.462 1.75933 -4.1584 4.45616 -155.196 -39.7317 -37.5281 11.2964 -1.06183 2.32054 151.28 -2.12743 -89.9983 11.2964 -1.06183 -2.32036 -28.7076 -2.13818 89.9962 1.31489 1.30001 1.88239e-008 -178.692 -3.05398 -178.972 12.6869 1.06581e-014 -9.53674e-007 -9.88485e-006 -9.34198e-008 1.04428e-005 
-30.2956 7.67337 0 176.373 -22.8909 -88.91 0 0 1.90735e-006 -105.354 -4.04099 -86.8283 -7.25225 -1.74978 -4.76837e-007 -27.1699 -4.70253 -166.592 15.788 0 -1.90735e-006 12.4819 18.1066 -11.1531 16.0015 1.90735e-006 9.53674e-007 35.1399 -21.587 6.2865 16.1689 -7.6294e-006 -5.96046e-008 36.3023 -17.012 -1.65715 6.52909 2.15392 1.08511 1.79019 -16.8139 4.38086 6.12663 8.45827 4.76269e-007 -88.9944 -0.0325012 -179.967 -6.05638 0.019474 -7.28025 -97.6278 -13.4064 -154.974 13.6591 3.8147e-006 1.77636e-014 -67.1035 -4.30546e-006 1.6485e-005 9.07514 7.15256e-007 -3.55271e-015 91.8108 9.34206e-006 1.17387e-006 8.13855 0 7.10543e-015 -73.5822 -7.89698 0.221896 3.79736 6.30085 -1.90535e-006 89.3797 1.36984e-005 -7.22251e-006 0.838763 0 -7.10543e-015 -8.9932e-007 2.16533e-006 -2.94794e-007 -6.84813 -3.12193 3.07905 -86.0577 -2.60188 -170.896 13.6591 -1.42109e-014 -4.76837e-007 -103.266 -1.35004e-006 -1.73763e-005 9.07516 0 -3.55271e-015 108.705 6.24029e-005 -8.14451e-006 8.13856 -7.6294e-006 -4.76837e-007 -51.4635 -7.43386 -10.6603 3.79738 6.30086 -4.75461e-007 93.8859 -6.61089e-006 5.66497e-006 0.838761 7.10543e-015 4.76837e-007 179.96 0.0001815 -1.12448e-007 12.1684 -0.0102468 -0.00240564 -5.46831 13.3402 3.74076 -0.157493 5.09008 -6.54009 -92.7406 -0.0220269 -167.965 -0.157496 5.09007 6.54 87.255 -0.000393422 12.0139 8.2971 8.50413 9.48683e-007 -91.651 -0.0334015 -179.968 13.2807 -0.0100152 -0.00155926 -6.19362 8.67322 -11.5944 12.4895 -6.66661 1.57501e-008 2.5586 -3.82057 7.41581 -7.51061 -1.81252 -2.29058 -161.004 -70.9989 134.645 13.2557 5.32907e-015 1.24345e-014 71.731 46.475 -105.533 12.8897 1.90735e-006 9.53675e-007 -80.2777 6.53609e-006 -6.10853e-006 11.2623 -9.53674e-007 -9.53675e-007 136.806 50.4266 -168.79 3.98015 -0.20866 -0.0949784 11.0954 28.4539 19.4595 6.57561 -1.90735e-006 -9.53675e-007 179.96 1.73588e-005 -2.5889e-005 -7.81404 -1.96963 0.0403371 162.851 63.1375 -55.3856 13.2557 -4.76837e-007 5.32907e-015 -89.906 -65.8986 -58.1438 12.8897 -2.83122e-007 -1.33227e-015 -41.455 1.03186e-006 1.73652e-005 11.2623 1.90735e-006 -5.55111e-015 -41.2187 -11.6648 -4.8163 3.98015 -0.20866 0.0949783 17.7442 -47.2146 17.3856 6.57562 -9.53674e-007 -1.90735e-006 1.928e-007 1.00724e-005 1.90046e-007 4.1934 -0.00320315 -0.000843048 -7.41442 14.7208 -11.9816 4.17604 0.298255 -4.80306e-010 35.7691 -0.480453 -10.4139 6.53259 -3.90693 -2.55361 164.794 6.70432 156.612 6.5326 -3.90694 2.55371 -19.5491 8.39145 -22.8455 1.75935 -4.1584 -4.45634 24.7931 -39.7306 142.462 1.75933 -4.1584 4.45616 -155.196 -39.7317 -37.5281 11.2964 -1.06183 2.32054 151.28 -2.12745 -89.9983 11.2964 -1.06183 -2.32036 -28.7076 -2.13818 89.9962 1.31489 1.30001 1.89005e-008 -178.692 -3.054 -178.972 12.6869 8.88179e-015 -9.53674e-007 -9.88485e-006 -9.34198e-008 1.04428e-005 
-30.2956 7.67337 0 176.373 -22.8909 -88.91 0 0 1.90735e-006 -105.354 -4.04103 -86.8282 -7.25225 -1.74978 -4.76837e-007 -27.1699 -4.70253 -166.592 15.788 0 -1.90735e-006 12.4819 18.1066 -11.1531 16.0015 1.90735e-006 9.53674e-007 35.1399 -21.587 6.2865 16.1689 -7.6294e-006 -5.96046e-008 36.3023 -17.012 -1.65715 6.52909 2.15392 1.08511 1.78965 -16.8139 4.37727 6.12663 8.45827 4.76272e-007 -88.9944 -0.0325012 -179.967 -6.05681 0.019474 -7.27988 -97.6274 -13.4113 -154.974 13.6591 3.8147e-006 1.42109e-014 -67.1035 -4.30595e-006 1.64843e-005 9.07514 7.15256e-007 0 91.8108 9.34227e-006 1.17368e-006 8.13855 0 3.55271e-015 -73.5822 -7.89698 0.221896 3.79736 6.30085 -1.90534e-006 89.3797 3.71371e-006 -7.33071e-006 0.838763 0 -1.06581e-014 -8.9932e-007 2.16533e-006 -2.94794e-007 -6.84765 -3.12193 3.08013 -86.0576 -2.60375 -170.896 13.6591 0 -4.76837e-007 -103.266 -1.34959e-006 -1.73773e-005 9.07516 -1.06581e-014 -8.88178e-016 108.705 6.24031e-005 -8.14429e-006 8.13856 -7.6294e-006 -4.76837e-007 -51.4635 -7.43386 -10.6603 3.79738 6.30086 -4.75484e-007 93.8859 -6.61103e-006 5.66519e-006 0.838761 1.42109e-014 4.76837e-007 179.96 0.0001815 -1.12448e-007 12.1684 -0.0102468 -0.00240564 -5.47077 13.3393 3.75146 -0.157493 5.09008 -6.54009 -92.7406 -0.0220269 -167.965 -0.157496 5.09007 6.54 87.255 -0.000393422 12.0139 8.2971 8.50413 9.48709e-007 -91.651 -0.0334167 -179.967 13.2807 -0.0100152 -0.00155926 -6.19203 8.67435 -11.6049 12.4895 -6.66661 1.56533e-008 2.5586 -3.82057 7.41581 -7.51061 -1.81252 -2.29058 -161.004 -70.999 134.645 13.2557 3.55271e-015 -8.88178e-016 71.7294 46.4747 -105.535 12.8897 1.90735e-006 9.53675e-007 -80.2777 8.46085e-006 -6.43805e-006 11.2623 -9.53674e-007 -9.53675e-007 136.805 50.4266 -168.79 3.98015 -0.20866 -0.0949784 11.0954 28.4539 19.4596 6.57561 -1.90735e-006 -9.53675e-007 179.96 1.73588e-005 -2.5889e-005 -7.81404 -1.96963 0.0403371 162.851 63.1375 -55.3856 13.2557 -4.76837e-007 4.21885e-015 -89.906 -65.8986 -58.1438 12.8897 -2.83122e-007 4.66294e-015 -41.455 1.03062e-006 1.73646e-005 11.2623 1.90735e-006 -7.54952e-015 -41.2187 -11.6648 -4.8163 3.98015 -0.20866 0.0949783 17.7441 -47.2146 17.3856 6.57562 -9.53674e-007 -1.90735e-006 1.928e-007 1.00724e-005 1.90046e-007 4.1934 -0.00320315 -0.000843048 -7.41523 14.7204 -11.9785 4.17604 0.298255 -4.74873e-010 35.7694 -0.477175 -10.4149 6.53259 -3.90693 -2.55361 164.794 6.7041 156.612 6.5326 -3.90694 2.55371 -19.5491 8.39145 -22.8455 1.75935 -4.1584 -4.45634 24.7931 -39.7306 142.462 1.75933 -4.1584 4.45616 -155.196 -39.7317 -37.5281 11.2964 -1.06183 2.32054 151.28 -2.12745 -89.9983 11.2964 -1.06183 -2.32036 -28.7076 -2.13818 89.9962 1.31489 1.30001 1.88981e-008 -178.692 -3.05403 -178.972 12.6869 -1.77636e-015 -9.53674e-007 -9.88485e-006 -9.34198e-008 1.04428e-005 
-30.2956 7.67337 0 176.373 -22.8909 -88.91 0 0 1.90735e-006 -105.354 -4.04106 -86.8281 -7.25225 -1.74978 -4.76837e-007 -27.1699 -4.70253 -166.592 15.788 3.55271e-015 -1.90735e-006 12.4819 18.1066 -11.1531 16.0015 1.90735e-006 9.53674e-007 35.1399 -21.587 6.2865 16.1689 -7.6294e-006 -5.96046e-008 36.3023 -17.012 -1.65715 6.52909 2.15392 1.08511 1.7886 -16.8141 4.37005 6.12663 8.45827 4.76277e-007 -88.9944 -0.0325012 -179.967 -6.05725 0.019474 -7.2795 -97.627 -13.4163 -154.973 13.6591 3.8147e-006 2.13163e-014 -67.1035 -4.30673e-006 1.64831e-005 9.07514 7.15256e-007 -3.55271e-015 91.8108 9.34257e-006 1.17344e-006 8.13855 0 -3.55271e-015 -73.5822 -7.89698 0.221896 3.79736 6.30085 -1.90533e-006 89.3797 3.75713e-006 -7.33036e-006 0.838763 0 0 -8.9932e-007 2.16533e-006 -2.94794e-007 -6.84716 -3.12193 3.08122 -86.0574 -2.60562 -170.897 13.6591 -1.42109e-014 -4.76837e-007 -103.266 -1.34914e-006 -1.7378e-005 9.07516 -1.42109e-014 -1.77636e-015 108.705 6.24027e-005 -8.14404e-006 8.13856 -7.6294e-006 -4.76837e-007 -51.4635 -7.43386 -10.6603 3.79738 6.30086 -4.75502e-007 93.8859 -6.6112e-006 5.66535e-006 0.838761 1.42109e-014 4.76837e-007 179.96 0.0001815 -1.12448e-007 12.1684 -0.0102468 -0.00240564 -5.47593 13.3372 3.7738 -0.157493 5.09008 -6.54009 -92.7406 -0.0220419 -167.965 -0.157496 5.09007 6.54 87.255 -0.000387282 12.0139 8.2971 8.50413 9.48763e-007 -91.651 -0.0333862 -179.968 13.2807 -0.0100152 -0.00155926 -6.18939 8.67622 -11.6224 12.4895 -6.66661 1.54692e-008 2.5586 -3.82057 7.41581 -7.51061 -1.81252 -2.29058 -161.005 -70.9988 134.644 13.2557 3.55271e-015 0 71.7279 46.4744 -105.537 12.8897 1.90735e-006 9.53675e-007 -80.2777 8.62234e-006 -6.46611e-006 11.2623 -9.53674e-007 -9.53675e-007 136.805 50.4266 -168.79 3.98015 -0.20866 -0.0949784 11.0954 28.454 19.4595 6.57561 -1.90735e-006 -9.53675e-007 179.96 1.73588e-005 -2.5889e-005 -7.81404 -1.96963 0.0403371 162.85 63.1375 -55.3856 13.2557 -4.76837e-007 6.66134e-016 -89.906 -65.8986 -58.1438 12.8897 -2.83122e-007 -1.33227e-015 -41.455 1.0283e-006 1.73638e-005 11.2623 1.90735e-006 -3.10862e-015 -41.2187 -11.6648 -4.8163 3.98015 -0.20866 0.0949783 17.7442 -47.2146 17.3856 6.57562 -9.53674e-007 -1.90735e-006 1.928e-007 1.00724e-005 1.90046e-007 4.1934 -0.00320315 -0.000843048 -7.41616 14.7199 -11.9748 4.17604 0.298255 -4.63608e-010 35.7748 -0.46095 -10.4203 6.53259 -3.90693 -2.55361 164.794 6.7041 156.612 6.5326 -3.90694 2.55371 -19.5491 8.39145 -22.8455 1.75935 -4.1584 -4.45634 24.7931 -39.7306 142.462 1.75933 -4.1584 4.45616 -155.196 -39.7317 -37.5281 11.2964 -1.06183 2.32054 151.279 -2.12717 -89.9983 11.2964 -1.06183 -2.32036 -28.7076 -2.13818 89.9962 1.31489 1.30001 1.8772e-008 -178.692 -3.05409 -178.971 12.6869 5.32907e-015 -9.53674e-007 -9.88485e-006 -9.34198e-008 1.04428e-005 
